<svg width="159" height="198" viewBox="0 0 159 198" fill="none" xmlns="http://www.w3.org/2000/svg">
<path d="M141.804 94.4293C155.304 87.9293 160.163 59.7757 139.804 41.9293L134.804 49.4293C136.983 38.0021 138.688 31.4669 124.304 24.4293C118.684 13.832 117.39 6.23507 96.3041 9.42928C92.2339 8.89008 89.3796 8.33896 83.3041 6.92928C76.6989 3.31287 70.0674 4.76288 54.8041 11.4293C50.7024 8.244 44.0004 17.5361 34.3041 28.4293C3.36343 52.5819 -8.05313 76.3018 24.8041 100.429V192.929H59.3041C56.0687 162.178 60.9548 151.94 83.3041 147.929C102.015 152.717 106.683 160.862 96.3041 192.929H134.804L132.804 122.929C135.404 116.848 134.771 113.697 130.804 108.429L110.304 113.929C122.692 110.771 129.626 108.399 141.804 94.4293ZM141.804 94.4293L130.804 74.9293" stroke="black" stroke-width="10" stroke-linecap="round" stroke-linejoin="round"/>
</svg>
