<svg width="163" height="201" viewBox="0 0 163 201" fill="none" xmlns="http://www.w3.org/2000/svg">
<path d="M27.2271 160.401V195.401H62.2271C58.9068 164.435 62.938 153.02 85.7271 148.401C106.212 153.345 109.364 163.655 100.227 195.401H136.727V135.401" stroke="black" stroke-width="10" stroke-linecap="round" stroke-linejoin="round"/>
<path d="M27.2271 148.401V100.901C9.39339 91.1234 4.15284 82.6297 10.7271 57.401C17.427 38.0523 35.9793 27.748 37.7271 29.901" stroke="black" stroke-width="10" stroke-linecap="round" stroke-linejoin="round"/>
<path d="M40.2271 100.901C52.5981 96.6011 56.952 90.7284 60.7271 74.901" stroke="black" stroke-width="10" stroke-linecap="round" stroke-linejoin="round"/>
<path d="M47.2271 20.901C49.8498 14.84 52.1668 12.3228 59.7271 11.401C75.3852 4.9479 79.6353 5.48826 86.7271 6.90103" stroke="black" stroke-width="10" stroke-linecap="round" stroke-linejoin="round"/>
<path d="M100.727 10.4011C115.467 7.22822 121.036 11.5334 128.227 25.4011C141.456 32.0626 140.335 39.0636 138.727 51.4011L141.227 43.9011C147.916 44.3629 149.281 47.5725 151.227 53.9011" stroke="black" stroke-width="10" stroke-linecap="round" stroke-linejoin="round"/>
<path d="M154.727 63.901C159.138 82.8494 155.872 89.3492 143.727 96.401" stroke="black" stroke-width="10" stroke-linecap="round" stroke-linejoin="round"/>
<path d="M134.227 76.401C151.31 98.9088 141.073 105.672 113.227 114.901" stroke="black" stroke-width="10" stroke-linecap="round" stroke-linejoin="round"/>
<path d="M132.227 108.401C137.091 112.73 138.547 115.783 136.727 123.401" stroke="black" stroke-width="10" stroke-linecap="round" stroke-linejoin="round"/>
<ellipse cx="89.2271" cy="67.901" rx="6" ry="7.5" fill="black"/>
<ellipse cx="124.227" cy="64.401" rx="6" ry="7" fill="black"/>
<ellipse cx="117.727" cy="87.901" rx="10.5" ry="7.5" fill="black"/>
</svg>
